<?xml version="1.0" encoding="utf-8"?>
<!-- Generator: Adobe Illustrator 16.0.0, SVG Export Plug-In . SVG Version: 6.00 Build 0)  -->
<?xml-stylesheet href="/assets/css/main.css"?>
<!DOCTYPE svg PUBLIC "-//W3C//DTD SVG 1.1//EN" "http://www.w3.org/Graphics/SVG/1.1/DTD/svg11.dtd">
<svg version="1.1" id="path" xmlns="http://www.w3.org/2000/svg" xmlns:xlink="http://www.w3.org/1999/xlink" x="0px" y="0px" width="35px" height="35px" viewBox="0 0 35 35" enable-background="new 0 0 35 35" xml:space="preserve">

<style>
    * {
      pointer-events: fill;
	  fill: #a8a8a8;
    }

    #path:hover path {
        fill: #4f4f4f;
    }
</style>

<a xlink:href="https://www.instagram.com/simon.media/" target="_blank">
<path d="M30.234,0.462H4.765c-2.409,0-4.302,1.894-4.302,4.302v25.472c0,2.408,1.893,4.301,4.302,4.301h25.47
	c2.411,0,4.303-1.893,4.303-4.301V4.593C34.366,2.356,32.473,0.462,30.234,0.462z M17.5,13.026c3.959,0,4.303,4.302,4.303,4.302
	s0.173,4.303-4.303,4.303c-4.302,0-4.302-4.303-4.302-4.303S13.542,13.026,17.5,13.026z M30.234,27.998
	c0,1.203-0.86,2.064-2.064,2.064H6.831c-1.205,0-2.066-1.031-2.066-2.064v-10.67c0-1.204,1.033-2.065,2.066-2.065h2.408
	c-0.172,0.688-0.344,1.376-0.344,2.065c0,4.646,3.786,8.432,8.433,8.432c4.647,0,8.434-3.785,8.434-8.432
	c0-0.688-0.173-1.377-0.344-2.065h2.408c1.204,0,2.064,1.033,2.064,2.065v10.67H30.234z M30.234,8.895
	c0,1.206-0.86,2.066-2.064,2.066h-2.064c-1.205,0-2.065-1.033-2.065-2.066V6.831c0-1.206,1.031-2.066,2.065-2.066h2.064
	c1.204,0,2.064,1.033,2.064,2.066V8.895z"/>
</a>
</svg>