<?xml version="1.0" encoding="utf-8"?>
<!-- Generator: Adobe Illustrator 21.1.0, SVG Export Plug-In . SVG Version: 6.00 Build 0)  -->
<?xml-stylesheet href="/assets/css/main.css"?>
<svg version="1.1" id="path" xmlns="http://www.w3.org/2000/svg" xmlns:xlink="http://www.w3.org/1999/xlink" x="0px" y="0px" width="35px" height="35px" viewBox="0 0 35 35" style="enable-background:new 0 0 35 35;" xml:space="preserve">
	
<style>
    * {
      pointer-events: fill;
	  fill: #a8a8a8;
    }

    #path:hover path {
        fill: #4f4f4f;
    }
</style>
	
<a xlink:href="https://vimeo.com/simonmediagroup" target="_blank">
<path d="M31.5,0h-28C1.6,0,0,1.6,0,3.5v28C0,33.4,1.6,35,3.5,35h28c1.9,0,3.5-1.6,3.5-3.5v-28C35,1.6,33.4,0,31.5,0z
		 M24.3,21.7c-3.4,4.5-6.3,6.7-8.7,6.7c-1.5,0-2.7-1.4-3.7-4.1c-0.7-2.5-1.4-5-2-7.5c-0.8-2.7-1.6-4.1-2.4-4.1c-0.2,0-0.9,0.4-2,1.2
		l-1.2-1.5c1.2-1.1,2.5-2.2,3.7-3.3c1.7-1.4,2.9-2.2,3.8-2.3c2-0.2,3.2,1.2,3.6,4c0.5,3.1,0.8,5,1,5.8c0.6,2.6,1.2,3.9,1.9,3.9
		c0.5,0,1.3-0.8,2.4-2.5c1.1-1.7,1.6-2.9,1.7-3.8c0.2-1.4-0.4-2.2-1.7-2.2c-0.6,0-1.2,0.1-1.9,0.4c1.2-4.1,3.6-6,7.1-5.9
		c2.6,0.1,3.8,1.8,3.7,5C29.3,14.1,27.6,17.5,24.3,21.7z"/>
</a>
</svg>
