<?xml version="1.0" encoding="utf-8"?>
<!-- Generator: Adobe Illustrator 21.1.0, SVG Export Plug-In . SVG Version: 6.00 Build 0)  -->
<?xml-stylesheet href="/assets/css/main.css"?>
<svg version="1.1" id="path" xmlns="http://www.w3.org/2000/svg" xmlns:xlink="http://www.w3.org/1999/xlink" x="0px" y="0px" width="35px" height="35px" viewBox="0 0 35 35" style="enable-background:new 0 0 35 35;" xml:space="preserve">
	
<style>
    * {
      pointer-events: fill;
	  fill: #a8a8a8;
    }

    #path:hover path {
        fill: #4f4f4f;
    }
</style>

<a xlink:href="https://www.youtube.com/channel/UCU0ojtqLJhkEN0qkRFWAVxA" target="_blank">
<path d="M34.3,9c-0.4-1.5-1.6-2.7-3.1-3.1c-2.7-0.7-13.7-0.7-13.7-0.7S6.6,5.2,3.8,5.9C2.3,6.3,1.1,7.5,0.7,9
		C0,11.8,0,17.5,0,17.5s0,5.7,0.7,8.5c0.4,1.5,1.6,2.7,3.1,3.1c2.7,0.7,13.7,0.7,13.7,0.7s10.9,0,13.7-0.7c1.5-0.4,2.7-1.6,3.1-3.1
		c0.7-2.7,0.7-8.5,0.7-8.5S35,11.8,34.3,9z M13.9,22.7V12.3l9.1,5.2L13.9,22.7z"/>
</a>
	
</svg>
